<mxfile host="app.diagrams.net" modified="2022-04-08T08:42:46.818Z" agent="5.0 (Windows NT 10.0; Win64; x64) AppleWebKit/537.36 (KHTML, like Gecko) Chrome/98.0.4758.102 Safari/537.36" etag="o4xgqcmJrXqJdGgvhTFs" version="17.4.1" type="github">
  <diagram id="ZcXVYhi8jEZApE4LMf-Q" name="Page-1">
    <mxGraphModel dx="2062" dy="1108" grid="1" gridSize="10" guides="1" tooltips="1" connect="1" arrows="1" fold="1" page="1" pageScale="1" pageWidth="827" pageHeight="1169" math="0" shadow="0">
      <root>
        <mxCell id="0" />
        <mxCell id="1" parent="0" />
        <mxCell id="OA4Hp8N05hoUwHdPYNo9-9" value="" style="group" parent="1" vertex="1" connectable="0">
          <mxGeometry x="115" y="70" width="225" height="150" as="geometry" />
        </mxCell>
        <mxCell id="OA4Hp8N05hoUwHdPYNo9-2" value="" style="rounded=0;whiteSpace=wrap;html=1;" parent="OA4Hp8N05hoUwHdPYNo9-9" vertex="1">
          <mxGeometry x="5" width="220" height="150" as="geometry" />
        </mxCell>
        <mxCell id="OA4Hp8N05hoUwHdPYNo9-3" value="对外nvmf&lt;br&gt;NvmeEndpoint:&quot;node-1:4421" style="text;html=1;strokeColor=none;fillColor=none;align=center;verticalAlign=middle;whiteSpace=wrap;rounded=0;" parent="OA4Hp8N05hoUwHdPYNo9-9" vertex="1">
          <mxGeometry x="35" y="26" width="160" height="30" as="geometry" />
        </mxCell>
        <mxCell id="OA4Hp8N05hoUwHdPYNo9-4" value="&lt;font style=&quot;font-size: 6px&quot;&gt;内部复制nvmf&lt;br&gt;ReplicationEndpoint:&quot;node-1:8420&quot;&lt;/font&gt;" style="text;html=1;strokeColor=none;fillColor=none;align=center;verticalAlign=middle;whiteSpace=wrap;rounded=0;strokeWidth=0;" parent="OA4Hp8N05hoUwHdPYNo9-9" vertex="1">
          <mxGeometry x="13" y="110" width="200" height="40" as="geometry" />
        </mxCell>
        <mxCell id="OA4Hp8N05hoUwHdPYNo9-5" value="" style="endArrow=none;html=1;rounded=0;exitX=0;exitY=0.5;exitDx=0;exitDy=0;entryX=1;entryY=0.5;entryDx=0;entryDy=0;" parent="OA4Hp8N05hoUwHdPYNo9-9" source="OA4Hp8N05hoUwHdPYNo9-2" target="OA4Hp8N05hoUwHdPYNo9-2" edge="1">
          <mxGeometry width="50" height="50" relative="1" as="geometry">
            <mxPoint x="55" y="100" as="sourcePoint" />
            <mxPoint x="105" y="50" as="targetPoint" />
          </mxGeometry>
        </mxCell>
        <mxCell id="OA4Hp8N05hoUwHdPYNo9-6" value="" style="endArrow=none;html=1;rounded=0;exitX=0;exitY=0.75;exitDx=0;exitDy=0;entryX=1;entryY=0.75;entryDx=0;entryDy=0;" parent="OA4Hp8N05hoUwHdPYNo9-9" source="OA4Hp8N05hoUwHdPYNo9-2" target="OA4Hp8N05hoUwHdPYNo9-2" edge="1">
          <mxGeometry width="50" height="50" relative="1" as="geometry">
            <mxPoint x="15" y="62.5" as="sourcePoint" />
            <mxPoint x="85" y="80" as="targetPoint" />
          </mxGeometry>
        </mxCell>
        <mxCell id="OA4Hp8N05hoUwHdPYNo9-8" value="&lt;font style=&quot;font-size: 5px&quot;&gt;本地lvol&lt;br&gt;&lt;span style=&quot;color: rgb(51 , 51 , 51)&quot;&gt;bdev:///&amp;lt;lvol_name&amp;gt;?uuid=&amp;lt;lvol_uuid&amp;gt;&lt;/span&gt;&lt;/font&gt;&lt;span style=&quot;font-size: 6px&quot;&gt;&lt;br&gt;&lt;/span&gt;" style="text;html=1;strokeColor=none;fillColor=none;align=center;verticalAlign=middle;whiteSpace=wrap;rounded=0;strokeWidth=0;" parent="OA4Hp8N05hoUwHdPYNo9-9" vertex="1">
          <mxGeometry x="5" y="80" width="220" height="30" as="geometry" />
        </mxCell>
        <mxCell id="OA4Hp8N05hoUwHdPYNo9-10" value="" style="group" parent="1" vertex="1" connectable="0">
          <mxGeometry x="380" y="70" width="225" height="150" as="geometry" />
        </mxCell>
        <mxCell id="OA4Hp8N05hoUwHdPYNo9-11" value="" style="rounded=0;whiteSpace=wrap;html=1;" parent="OA4Hp8N05hoUwHdPYNo9-10" vertex="1">
          <mxGeometry x="5" width="220" height="150" as="geometry" />
        </mxCell>
        <mxCell id="OA4Hp8N05hoUwHdPYNo9-12" value="对外nvmf&lt;br&gt;NvmeEndpoint:&quot;node-2:4421" style="text;html=1;strokeColor=none;fillColor=none;align=center;verticalAlign=middle;whiteSpace=wrap;rounded=0;" parent="OA4Hp8N05hoUwHdPYNo9-10" vertex="1">
          <mxGeometry x="35" y="26" width="160" height="30" as="geometry" />
        </mxCell>
        <mxCell id="OA4Hp8N05hoUwHdPYNo9-13" value="&lt;font style=&quot;font-size: 6px&quot;&gt;内部复制nvmf&lt;br&gt;ReplicationEndpoint:&quot;node-2:8420&quot;&lt;/font&gt;" style="text;html=1;strokeColor=none;fillColor=none;align=center;verticalAlign=middle;whiteSpace=wrap;rounded=0;strokeWidth=0;" parent="OA4Hp8N05hoUwHdPYNo9-10" vertex="1">
          <mxGeometry x="13" y="110" width="200" height="40" as="geometry" />
        </mxCell>
        <mxCell id="OA4Hp8N05hoUwHdPYNo9-14" value="" style="endArrow=none;html=1;rounded=0;exitX=0;exitY=0.5;exitDx=0;exitDy=0;entryX=1;entryY=0.5;entryDx=0;entryDy=0;" parent="OA4Hp8N05hoUwHdPYNo9-10" source="OA4Hp8N05hoUwHdPYNo9-11" target="OA4Hp8N05hoUwHdPYNo9-11" edge="1">
          <mxGeometry width="50" height="50" relative="1" as="geometry">
            <mxPoint x="55" y="100" as="sourcePoint" />
            <mxPoint x="105" y="50" as="targetPoint" />
          </mxGeometry>
        </mxCell>
        <mxCell id="OA4Hp8N05hoUwHdPYNo9-15" value="" style="endArrow=none;html=1;rounded=0;exitX=0;exitY=0.75;exitDx=0;exitDy=0;entryX=1;entryY=0.75;entryDx=0;entryDy=0;" parent="OA4Hp8N05hoUwHdPYNo9-10" source="OA4Hp8N05hoUwHdPYNo9-11" target="OA4Hp8N05hoUwHdPYNo9-11" edge="1">
          <mxGeometry width="50" height="50" relative="1" as="geometry">
            <mxPoint x="15" y="62.5" as="sourcePoint" />
            <mxPoint x="85" y="80" as="targetPoint" />
          </mxGeometry>
        </mxCell>
        <mxCell id="OA4Hp8N05hoUwHdPYNo9-16" value="&lt;font style=&quot;font-size: 5px&quot;&gt;本地lvol&lt;br&gt;&lt;span style=&quot;color: rgb(51 , 51 , 51)&quot;&gt;bdev:///&amp;lt;lvol_name&amp;gt;?uuid=&amp;lt;lvol_uuid&amp;gt;&lt;/span&gt;&lt;/font&gt;&lt;span style=&quot;font-size: 6px&quot;&gt;&lt;br&gt;&lt;/span&gt;" style="text;html=1;strokeColor=none;fillColor=none;align=center;verticalAlign=middle;whiteSpace=wrap;rounded=0;strokeWidth=0;" parent="OA4Hp8N05hoUwHdPYNo9-10" vertex="1">
          <mxGeometry x="5" y="80" width="220" height="30" as="geometry" />
        </mxCell>
        <mxCell id="OA4Hp8N05hoUwHdPYNo9-17" value="" style="group" parent="1" vertex="1" connectable="0">
          <mxGeometry x="640" y="70" width="225" height="150" as="geometry" />
        </mxCell>
        <mxCell id="OA4Hp8N05hoUwHdPYNo9-18" value="" style="rounded=0;whiteSpace=wrap;html=1;" parent="OA4Hp8N05hoUwHdPYNo9-17" vertex="1">
          <mxGeometry x="5" width="220" height="150" as="geometry" />
        </mxCell>
        <mxCell id="OA4Hp8N05hoUwHdPYNo9-19" value="对外nvmf&lt;br&gt;NvmeEndpoint:&quot;node-N:4421" style="text;html=1;strokeColor=none;fillColor=none;align=center;verticalAlign=middle;whiteSpace=wrap;rounded=0;" parent="OA4Hp8N05hoUwHdPYNo9-17" vertex="1">
          <mxGeometry x="35" y="26" width="160" height="30" as="geometry" />
        </mxCell>
        <mxCell id="OA4Hp8N05hoUwHdPYNo9-20" value="&lt;font style=&quot;font-size: 6px&quot;&gt;内部复制nvmf&lt;br&gt;ReplicationEndpoint:&quot;node-N:8420&quot;&lt;/font&gt;" style="text;html=1;strokeColor=none;fillColor=none;align=center;verticalAlign=middle;whiteSpace=wrap;rounded=0;strokeWidth=0;" parent="OA4Hp8N05hoUwHdPYNo9-17" vertex="1">
          <mxGeometry x="15" y="110" width="200" height="40" as="geometry" />
        </mxCell>
        <mxCell id="OA4Hp8N05hoUwHdPYNo9-21" value="" style="endArrow=none;html=1;rounded=0;exitX=0;exitY=0.5;exitDx=0;exitDy=0;entryX=1;entryY=0.5;entryDx=0;entryDy=0;" parent="OA4Hp8N05hoUwHdPYNo9-17" source="OA4Hp8N05hoUwHdPYNo9-18" target="OA4Hp8N05hoUwHdPYNo9-18" edge="1">
          <mxGeometry width="50" height="50" relative="1" as="geometry">
            <mxPoint x="55" y="100" as="sourcePoint" />
            <mxPoint x="105" y="50" as="targetPoint" />
          </mxGeometry>
        </mxCell>
        <mxCell id="OA4Hp8N05hoUwHdPYNo9-22" value="" style="endArrow=none;html=1;rounded=0;exitX=0;exitY=0.75;exitDx=0;exitDy=0;entryX=1;entryY=0.75;entryDx=0;entryDy=0;" parent="OA4Hp8N05hoUwHdPYNo9-17" source="OA4Hp8N05hoUwHdPYNo9-18" target="OA4Hp8N05hoUwHdPYNo9-18" edge="1">
          <mxGeometry width="50" height="50" relative="1" as="geometry">
            <mxPoint x="15" y="62.5" as="sourcePoint" />
            <mxPoint x="85" y="80" as="targetPoint" />
          </mxGeometry>
        </mxCell>
        <mxCell id="OA4Hp8N05hoUwHdPYNo9-23" value="&lt;font style=&quot;font-size: 5px&quot;&gt;本地lvol&lt;br&gt;&lt;span style=&quot;color: rgb(51 , 51 , 51)&quot;&gt;bdev:///&amp;lt;lvol_name&amp;gt;?uuid=&amp;lt;lvol_uuid&amp;gt;&lt;/span&gt;&lt;/font&gt;&lt;span style=&quot;font-size: 6px&quot;&gt;&lt;br&gt;&lt;/span&gt;" style="text;html=1;strokeColor=none;fillColor=none;align=center;verticalAlign=middle;whiteSpace=wrap;rounded=0;strokeWidth=0;" parent="OA4Hp8N05hoUwHdPYNo9-17" vertex="1">
          <mxGeometry x="5" y="80" width="220" height="30" as="geometry" />
        </mxCell>
        <mxCell id="OA4Hp8N05hoUwHdPYNo9-24" value="node-1" style="text;html=1;strokeColor=none;fillColor=none;align=center;verticalAlign=middle;whiteSpace=wrap;rounded=0;fontSize=5;" parent="1" vertex="1">
          <mxGeometry x="198" y="240" width="60" height="30" as="geometry" />
        </mxCell>
        <mxCell id="OA4Hp8N05hoUwHdPYNo9-25" value="node-2" style="text;html=1;strokeColor=none;fillColor=none;align=center;verticalAlign=middle;whiteSpace=wrap;rounded=0;fontSize=5;" parent="1" vertex="1">
          <mxGeometry x="462.5" y="240" width="60" height="30" as="geometry" />
        </mxCell>
        <mxCell id="OA4Hp8N05hoUwHdPYNo9-26" value="node-N" style="text;html=1;strokeColor=none;fillColor=none;align=center;verticalAlign=middle;whiteSpace=wrap;rounded=0;fontSize=5;" parent="1" vertex="1">
          <mxGeometry x="730" y="240" width="60" height="30" as="geometry" />
        </mxCell>
        <mxCell id="tmL5VtSiSNj98XbMmmCX-18" value="" style="edgeStyle=none;rounded=0;orthogonalLoop=1;jettySize=auto;html=1;" edge="1" parent="1" source="tmL5VtSiSNj98XbMmmCX-16" target="tmL5VtSiSNj98XbMmmCX-17">
          <mxGeometry relative="1" as="geometry" />
        </mxCell>
        <mxCell id="tmL5VtSiSNj98XbMmmCX-16" value="start" style="ellipse;whiteSpace=wrap;html=1;strokeColor=#000000;flipH=1;" vertex="1" parent="1">
          <mxGeometry x="90" y="320" width="120" height="80" as="geometry" />
        </mxCell>
        <mxCell id="tmL5VtSiSNj98XbMmmCX-20" value="" style="edgeStyle=none;rounded=0;orthogonalLoop=1;jettySize=auto;html=1;" edge="1" parent="1" source="tmL5VtSiSNj98XbMmmCX-17" target="tmL5VtSiSNj98XbMmmCX-19">
          <mxGeometry relative="1" as="geometry" />
        </mxCell>
        <mxCell id="tmL5VtSiSNj98XbMmmCX-17" value="create pool" style="whiteSpace=wrap;html=1;strokeColor=#000000;flipH=1;" vertex="1" parent="1">
          <mxGeometry x="90" y="423" width="120" height="60" as="geometry" />
        </mxCell>
        <mxCell id="tmL5VtSiSNj98XbMmmCX-22" value="" style="edgeStyle=none;rounded=0;orthogonalLoop=1;jettySize=auto;html=1;" edge="1" parent="1" source="tmL5VtSiSNj98XbMmmCX-19" target="tmL5VtSiSNj98XbMmmCX-21">
          <mxGeometry relative="1" as="geometry" />
        </mxCell>
        <mxCell id="tmL5VtSiSNj98XbMmmCX-19" value="create replica on pool" style="whiteSpace=wrap;html=1;strokeColor=#000000;flipH=1;" vertex="1" parent="1">
          <mxGeometry x="90" y="516" width="120" height="60" as="geometry" />
        </mxCell>
        <mxCell id="tmL5VtSiSNj98XbMmmCX-24" value="" style="edgeStyle=none;rounded=0;orthogonalLoop=1;jettySize=auto;html=1;" edge="1" parent="1" source="tmL5VtSiSNj98XbMmmCX-21" target="tmL5VtSiSNj98XbMmmCX-23">
          <mxGeometry relative="1" as="geometry" />
        </mxCell>
        <mxCell id="tmL5VtSiSNj98XbMmmCX-21" value="share replica" style="whiteSpace=wrap;html=1;strokeColor=#000000;flipH=1;" vertex="1" parent="1">
          <mxGeometry x="90" y="609" width="120" height="60" as="geometry" />
        </mxCell>
        <mxCell id="tmL5VtSiSNj98XbMmmCX-26" value="" style="edgeStyle=none;rounded=0;orthogonalLoop=1;jettySize=auto;html=1;" edge="1" parent="1" source="tmL5VtSiSNj98XbMmmCX-23" target="tmL5VtSiSNj98XbMmmCX-25">
          <mxGeometry relative="1" as="geometry" />
        </mxCell>
        <mxCell id="tmL5VtSiSNj98XbMmmCX-23" value="create nexus" style="whiteSpace=wrap;html=1;strokeColor=#000000;flipH=1;" vertex="1" parent="1">
          <mxGeometry x="90" y="701" width="120" height="60" as="geometry" />
        </mxCell>
        <mxCell id="tmL5VtSiSNj98XbMmmCX-28" value="" style="edgeStyle=none;rounded=0;orthogonalLoop=1;jettySize=auto;html=1;" edge="1" parent="1" source="tmL5VtSiSNj98XbMmmCX-25" target="tmL5VtSiSNj98XbMmmCX-27">
          <mxGeometry relative="1" as="geometry" />
        </mxCell>
        <mxCell id="tmL5VtSiSNj98XbMmmCX-25" value="publish nexus" style="whiteSpace=wrap;html=1;strokeColor=#000000;" vertex="1" parent="1">
          <mxGeometry x="90" y="794" width="120" height="60" as="geometry" />
        </mxCell>
        <mxCell id="tmL5VtSiSNj98XbMmmCX-30" value="" style="edgeStyle=none;rounded=0;orthogonalLoop=1;jettySize=auto;html=1;" edge="1" parent="1" source="tmL5VtSiSNj98XbMmmCX-27" target="tmL5VtSiSNj98XbMmmCX-29">
          <mxGeometry relative="1" as="geometry" />
        </mxCell>
        <mxCell id="tmL5VtSiSNj98XbMmmCX-27" value="connect nexus" style="whiteSpace=wrap;html=1;strokeColor=#000000;" vertex="1" parent="1">
          <mxGeometry x="90" y="887" width="120" height="60" as="geometry" />
        </mxCell>
        <mxCell id="tmL5VtSiSNj98XbMmmCX-29" value="end" style="ellipse;whiteSpace=wrap;html=1;strokeColor=#000000;" vertex="1" parent="1">
          <mxGeometry x="90" y="980" width="120" height="60" as="geometry" />
        </mxCell>
        <mxCell id="tmL5VtSiSNj98XbMmmCX-31" value="" style="group" vertex="1" connectable="0" parent="1">
          <mxGeometry x="1040" y="60" width="510" height="230" as="geometry" />
        </mxCell>
        <mxCell id="tmL5VtSiSNj98XbMmmCX-1" value="客户端" style="rounded=0;whiteSpace=wrap;html=1;" vertex="1" parent="tmL5VtSiSNj98XbMmmCX-31">
          <mxGeometry x="201" width="120" height="60" as="geometry" />
        </mxCell>
        <mxCell id="tmL5VtSiSNj98XbMmmCX-2" value="node-2" style="rounded=0;whiteSpace=wrap;html=1;" vertex="1" parent="tmL5VtSiSNj98XbMmmCX-31">
          <mxGeometry x="201" y="170" width="120" height="60" as="geometry" />
        </mxCell>
        <mxCell id="tmL5VtSiSNj98XbMmmCX-3" value="" style="edgeStyle=orthogonalEdgeStyle;rounded=0;orthogonalLoop=1;jettySize=auto;html=1;" edge="1" parent="tmL5VtSiSNj98XbMmmCX-31" source="tmL5VtSiSNj98XbMmmCX-1" target="tmL5VtSiSNj98XbMmmCX-2">
          <mxGeometry relative="1" as="geometry" />
        </mxCell>
        <mxCell id="tmL5VtSiSNj98XbMmmCX-4" value="node-1" style="whiteSpace=wrap;html=1;rounded=0;" vertex="1" parent="tmL5VtSiSNj98XbMmmCX-31">
          <mxGeometry y="170" width="120" height="60" as="geometry" />
        </mxCell>
        <mxCell id="tmL5VtSiSNj98XbMmmCX-5" value="" style="rounded=0;orthogonalLoop=1;jettySize=auto;html=1;dashed=1;" edge="1" parent="tmL5VtSiSNj98XbMmmCX-31" source="tmL5VtSiSNj98XbMmmCX-1" target="tmL5VtSiSNj98XbMmmCX-4">
          <mxGeometry relative="1" as="geometry" />
        </mxCell>
        <mxCell id="tmL5VtSiSNj98XbMmmCX-6" value="node-3" style="rounded=0;whiteSpace=wrap;html=1;" vertex="1" parent="tmL5VtSiSNj98XbMmmCX-31">
          <mxGeometry x="390" y="170" width="120" height="60" as="geometry" />
        </mxCell>
        <mxCell id="tmL5VtSiSNj98XbMmmCX-10" value="" style="endArrow=classic;startArrow=classic;html=1;rounded=0;entryX=0;entryY=0.5;entryDx=0;entryDy=0;exitX=1;exitY=0.5;exitDx=0;exitDy=0;" edge="1" parent="tmL5VtSiSNj98XbMmmCX-31" source="tmL5VtSiSNj98XbMmmCX-4" target="tmL5VtSiSNj98XbMmmCX-2">
          <mxGeometry width="50" height="50" relative="1" as="geometry">
            <mxPoint x="100" y="330" as="sourcePoint" />
            <mxPoint x="150" y="280" as="targetPoint" />
          </mxGeometry>
        </mxCell>
        <mxCell id="tmL5VtSiSNj98XbMmmCX-7" value="" style="rounded=0;orthogonalLoop=1;jettySize=auto;html=1;" edge="1" parent="tmL5VtSiSNj98XbMmmCX-31" source="tmL5VtSiSNj98XbMmmCX-1" target="tmL5VtSiSNj98XbMmmCX-6">
          <mxGeometry relative="1" as="geometry" />
        </mxCell>
        <mxCell id="tmL5VtSiSNj98XbMmmCX-11" value="" style="endArrow=classic;startArrow=classic;html=1;rounded=0;entryX=0;entryY=0.5;entryDx=0;entryDy=0;exitX=1;exitY=0.5;exitDx=0;exitDy=0;" edge="1" parent="tmL5VtSiSNj98XbMmmCX-31" source="tmL5VtSiSNj98XbMmmCX-2" target="tmL5VtSiSNj98XbMmmCX-6">
          <mxGeometry width="50" height="50" relative="1" as="geometry">
            <mxPoint x="410" y="380" as="sourcePoint" />
            <mxPoint x="460" y="330" as="targetPoint" />
          </mxGeometry>
        </mxCell>
        <mxCell id="tmL5VtSiSNj98XbMmmCX-13" value="" style="shape=umlDestroy;whiteSpace=wrap;html=1;strokeWidth=3;strokeColor=#FF0000;" vertex="1" parent="tmL5VtSiSNj98XbMmmCX-31">
          <mxGeometry x="142" y="94" width="30" height="30" as="geometry" />
        </mxCell>
        <mxCell id="tmL5VtSiSNj98XbMmmCX-32" value="" style="group" vertex="1" connectable="0" parent="1">
          <mxGeometry x="380" y="346" width="510" height="230" as="geometry" />
        </mxCell>
        <mxCell id="tmL5VtSiSNj98XbMmmCX-33" value="客户端" style="rounded=0;whiteSpace=wrap;html=1;" vertex="1" parent="tmL5VtSiSNj98XbMmmCX-32">
          <mxGeometry x="201" width="120" height="60" as="geometry" />
        </mxCell>
        <mxCell id="tmL5VtSiSNj98XbMmmCX-34" value="node-2" style="rounded=0;whiteSpace=wrap;html=1;" vertex="1" parent="tmL5VtSiSNj98XbMmmCX-32">
          <mxGeometry x="201" y="170" width="120" height="60" as="geometry" />
        </mxCell>
        <mxCell id="tmL5VtSiSNj98XbMmmCX-35" value="" style="edgeStyle=orthogonalEdgeStyle;rounded=0;orthogonalLoop=1;jettySize=auto;html=1;" edge="1" parent="tmL5VtSiSNj98XbMmmCX-32" source="tmL5VtSiSNj98XbMmmCX-33" target="tmL5VtSiSNj98XbMmmCX-34">
          <mxGeometry relative="1" as="geometry" />
        </mxCell>
        <mxCell id="tmL5VtSiSNj98XbMmmCX-36" value="node-1" style="whiteSpace=wrap;html=1;rounded=0;" vertex="1" parent="tmL5VtSiSNj98XbMmmCX-32">
          <mxGeometry y="170" width="120" height="60" as="geometry" />
        </mxCell>
        <mxCell id="tmL5VtSiSNj98XbMmmCX-37" value="" style="rounded=0;orthogonalLoop=1;jettySize=auto;html=1;" edge="1" parent="tmL5VtSiSNj98XbMmmCX-32" source="tmL5VtSiSNj98XbMmmCX-33" target="tmL5VtSiSNj98XbMmmCX-36">
          <mxGeometry relative="1" as="geometry" />
        </mxCell>
        <mxCell id="tmL5VtSiSNj98XbMmmCX-38" value="node-3" style="rounded=0;whiteSpace=wrap;html=1;" vertex="1" parent="tmL5VtSiSNj98XbMmmCX-32">
          <mxGeometry x="390" y="170" width="120" height="60" as="geometry" />
        </mxCell>
        <mxCell id="tmL5VtSiSNj98XbMmmCX-39" value="" style="endArrow=classic;startArrow=classic;html=1;rounded=0;entryX=0;entryY=0.5;entryDx=0;entryDy=0;exitX=1;exitY=0.5;exitDx=0;exitDy=0;dashed=1;" edge="1" parent="tmL5VtSiSNj98XbMmmCX-32" source="tmL5VtSiSNj98XbMmmCX-36" target="tmL5VtSiSNj98XbMmmCX-34">
          <mxGeometry width="50" height="50" relative="1" as="geometry">
            <mxPoint x="100" y="330" as="sourcePoint" />
            <mxPoint x="150" y="280" as="targetPoint" />
          </mxGeometry>
        </mxCell>
        <mxCell id="tmL5VtSiSNj98XbMmmCX-40" value="" style="rounded=0;orthogonalLoop=1;jettySize=auto;html=1;" edge="1" parent="tmL5VtSiSNj98XbMmmCX-32" source="tmL5VtSiSNj98XbMmmCX-33" target="tmL5VtSiSNj98XbMmmCX-38">
          <mxGeometry relative="1" as="geometry" />
        </mxCell>
        <mxCell id="tmL5VtSiSNj98XbMmmCX-41" value="" style="endArrow=classic;startArrow=classic;html=1;rounded=0;entryX=0;entryY=0.5;entryDx=0;entryDy=0;exitX=1;exitY=0.5;exitDx=0;exitDy=0;" edge="1" parent="tmL5VtSiSNj98XbMmmCX-32" source="tmL5VtSiSNj98XbMmmCX-34" target="tmL5VtSiSNj98XbMmmCX-38">
          <mxGeometry width="50" height="50" relative="1" as="geometry">
            <mxPoint x="410" y="380" as="sourcePoint" />
            <mxPoint x="460" y="330" as="targetPoint" />
          </mxGeometry>
        </mxCell>
        <mxCell id="tmL5VtSiSNj98XbMmmCX-42" value="" style="shape=umlDestroy;whiteSpace=wrap;html=1;strokeWidth=3;strokeColor=#FF0000;" vertex="1" parent="tmL5VtSiSNj98XbMmmCX-32">
          <mxGeometry x="150" y="185" width="30" height="30" as="geometry" />
        </mxCell>
      </root>
    </mxGraphModel>
  </diagram>
</mxfile>
